<svg width="676" height="885" viewBox="0 0 676 885" fill="none" xmlns="http://www.w3.org/2000/svg">
<rect width="676" height="885" fill="white"/>
<path d="M242.708 616.872V553.545M295.654 651.651V582.094" stroke="#D9D9D9" stroke-width="19"/>
<path d="M442.034 616.872V553.545M389.088 651.651V582.094" stroke="#D9D9D9" stroke-width="19"/>
<path d="M175.228 539.529V488.141H204.815" stroke="#D9D9D9" stroke-width="19" stroke-linecap="round"/>
<path d="M499.652 488.141V478.641H509.152V488.141H499.652ZM470.064 497.641C464.818 497.641 460.564 493.387 460.564 488.141C460.564 482.894 464.818 478.641 470.064 478.641V497.641ZM499.652 539.529H490.152V488.141H499.652H509.152V539.529H499.652ZM499.652 488.141V497.641H470.064V488.141V478.641H499.652V488.141Z" fill="#D9D9D9"/>
<path d="M276.967 486.064V434.156" stroke="#D9D9D9" stroke-width="19" stroke-linecap="round"/>
<path d="M399.47 486.064V434.156" stroke="#D9D9D9" stroke-width="19" stroke-linecap="round"/>
<path d="M185.609 408.203H243.227V389.516" stroke="#D9D9D9" stroke-width="19"/>
<path d="M495.5 408.203H437.882V389.516" stroke="#D9D9D9" stroke-width="19"/>
<path d="M304.997 407.684H276.967V172.541L337.699 133.091" stroke="#D9D9D9" stroke-width="19" stroke-linecap="round"/>
<path d="M370.92 407.684H398.951V172.541L338.218 133.091" stroke="#D9D9D9" stroke-width="19" stroke-linecap="round"/>
<path d="M163.808 410.279L339.256 521.881L508.476 415.47" stroke="#9C9C9C" stroke-width="19"/>
<path d="M560.827 375.27V414.142L527.162 433.579L493.498 414.142V375.27L527.162 355.833L560.827 375.27Z" fill="#9C9C9C" stroke="#9C9C9C"/>
<path d="M151.35 355.257L185.515 374.982V414.432L151.35 434.157L117.185 414.432V374.982L151.35 355.257Z" fill="#9C9C9C"/>
<path d="M533.835 552.795V591.667L500.17 611.104L466.506 591.667V552.795L500.17 533.358L533.835 552.795Z" fill="#9C9C9C" stroke="#9C9C9C"/>
<line x1="102.557" y1="677.967" x2="573.88" y2="677.967" stroke="#D9D9D9" stroke-width="19"/>
<path d="M72.45 637.635L106.615 657.36V696.81L72.45 716.535L38.2853 696.81V657.36L72.45 637.635Z" fill="#9C9C9C"/>
<path d="M637.651 657.649V696.521L603.986 715.958L570.322 696.521V657.649L603.986 638.212L637.651 657.649Z" fill="#9C9C9C" stroke="#9C9C9C"/>
<path d="M195.991 592.995L339.257 682.795L480.446 592.995" stroke="#9C9C9C" stroke-width="19"/>
<circle cx="336.142" cy="89.4882" r="39.9882" fill="#9C9C9C" stroke="#9C9C9C"/>
<path d="M394.279 354.737L442.034 323.074V285.7" stroke="#D9D9D9" stroke-width="19"/>
<path d="M276.967 354.737L229.212 323.074V285.7" stroke="#D9D9D9" stroke-width="19"/>
<circle cx="243.227" cy="367.195" r="11.9388" fill="#9C9C9C"/>
<circle cx="437.363" cy="367.195" r="11.9388" fill="#9C9C9C"/>
<circle cx="441.515" cy="269.609" r="19.2059" fill="#9C9C9C"/>
<circle cx="295.654" cy="557.697" r="13.4961" fill="#9C9C9C"/>
<circle cx="389.088" cy="557.697" r="13.4961" fill="#9C9C9C"/>
<circle cx="228.693" cy="269.609" r="19.2059" fill="#9C9C9C"/>
<path d="M165.728 716.535C165.728 721.782 169.981 726.035 175.228 726.035C180.474 726.035 184.728 721.782 184.728 716.535L165.728 716.535ZM175.228 638.674L165.728 638.674L165.728 716.535L175.228 716.535L184.728 716.535L184.728 638.674L175.228 638.674Z" fill="#D9D9D9"/>
<path d="M490.671 716.017C490.671 721.263 494.924 725.517 500.171 725.517C505.418 725.517 509.671 721.263 509.671 716.017L490.671 716.017ZM500.171 638.155L490.671 638.155L490.671 716.017L500.171 716.017L509.671 716.017L509.671 638.155L500.171 638.155Z" fill="#D9D9D9"/>
<path d="M447.225 682.276V716.536" stroke="#D9D9D9" stroke-width="19" stroke-linecap="round"/>
<path d="M242.708 682.276V716.536" stroke="#D9D9D9" stroke-width="19" stroke-linecap="round"/>
<path d="M268.662 725.879H295.135V837.481" stroke="#D9D9D9" stroke-width="19" stroke-linecap="round"/>
<path d="M415.561 725.879H389.088V837.481" stroke="#D9D9D9" stroke-width="19" stroke-linecap="round"/>
<path d="M141.487 581.575H98.4038V519.286" stroke="#D9D9D9" stroke-width="19"/>
<path d="M534.43 581.575H577.514V519.286" stroke="#D9D9D9" stroke-width="19"/>
<path d="M175.227 532.781L209.392 552.506V591.956L175.227 611.681L141.063 591.956V552.506L175.227 532.781Z" fill="#9C9C9C"/>
<circle cx="97.8851" cy="505.27" r="19.2059" fill="#9C9C9C"/>
<circle cx="577.514" cy="505.27" r="19.2059" fill="#9C9C9C"/>
</svg>
