<svg width="165" height="92" viewBox="0 0 165 92" fill="none" xmlns="http://www.w3.org/2000/svg">
<g id="Frame 1010106238">
<path id="Vector" d="M63.7948 83.32L60.1839 71.7073C60.266 71.5842 34.51 80.7622 32.6635 82.1711C31.6923 82.9234 29.1755 90.2411 29.1755 90.2411L60.1565 84.1134" fill="#555555"/>
<path id="Vector_2" d="M42.156 74.9354V64.0002C42.238 63.8361 5.77211 80.6529 3.61097 82.6225C2.47568 83.6621 0 91.8826 0 91.8826L37.697 76.8367" fill="#555555"/>
<path id="Vector_3" d="M92.7656 54.8555L91.5072 72.7875H157.805C160.541 72.7875 165 60.2447 165 60.2447H91.5072" fill="#555555"/>
<path id="Vector_4" d="M87.1851 90.0082C86.2139 89.1739 81.7822 79.0657 81.5497 77.6979C80.938 73.5668 80.938 69.3682 81.5497 65.2372C82.4935 60.5319 90.8508 41.656 92.5743 42.7503C94.2977 43.8445 92.4101 89.1739 92.4101 89.1739C92.4101 89.1739 88.1699 90.8426 87.1851 90.0082Z" fill="#555555"/>
<path id="Vector_5" d="M73.4789 90.0082C72.4941 89.1739 68.0077 79.0657 67.8436 77.6979C67.2319 73.5668 67.2319 69.3682 67.8436 65.2372C68.7874 60.5319 77.1447 41.656 78.8681 42.7503C80.5916 43.8445 78.704 89.1739 78.704 89.1739C78.704 89.1739 74.4638 90.8426 73.4789 90.0082Z" fill="#555555"/>
<path id="Vector_6" d="M60.3205 90.0082C59.3494 89.1739 54.9177 79.0657 54.6851 77.6979C54.0735 73.5668 54.0735 69.3682 54.6851 65.2372C55.6289 60.5319 63.9863 41.656 65.7097 42.7503C67.4332 43.8445 65.5456 89.1739 65.5456 89.1739C65.5456 89.1739 61.3601 90.8426 60.3205 90.0082Z" fill="#555555"/>
<path id="Vector_7" d="M52.9345 60.1493C52.9345 60.1493 54.9179 2.03085 52.9345 0.143264C50.9512 -1.74432 44.3037 15.5996 43.7566 18.1164C43.2094 20.6331 43.7566 74.1967 43.7566 74.1967L53.7279 71.4611" fill="#555555"/>
</g>
</svg>
